# xmcd
#
# Track frame offsets: 
#        150
#        11242
#        20701
#        30822
#        42936
#        51607
#        64453
#        78230
#        88580
#        99739
#        111354
#
# Disc length: 1608 seconds
#
# Revision: 0
# Processed by: cddbd v1.5.2PL0 Copyright (c) Steve Scherf et al.
# Submitted via: ExactAudioCopy v0.99pb4
#
DISCID=9106460b
DTITLE=Canned Heat - Vintage
DYEAR=1966
DGENRE=Blues
TTITLE0=Spoonful
TTITLE1=Big Road Blues
TTITLE2=Rollin' And Tumblin'
TTITLE3=Got My Mojo Working
TTITLE4=Pretty Thing
TTITLE5=Going Up The Country
TTITLE6=Louise
TTITLE7=Dimples
TTITLE8=Can't Hold On Much Longer
TTITLE9=Straight Ahead
TTITLE10=Rollin' And Tumblin'
EXTD=Lilith LR139 @2007 compilation\nJohnny Otis produced these early 
EXTD=recordings of Canned Heat in 1966
EXTT0=
EXTT1=
EXTT2=
EXTT3=
EXTT4=
EXTT5=
EXTT6=
EXTT7=
EXTT8=
EXTT9=
EXTT10=
PLAYORDER=
